<svg width="183" height="27" viewBox="0 0 183 27" fill="none" xmlns="http://www.w3.org/2000/svg">
<path d="M9.112 26.224C7.46933 26.224 5.99733 25.9573 4.696 25.424C3.39467 24.8907 2.34933 24.1013 1.56 23.056C0.792 22.0107 0.386667 20.752 0.344 19.28H6.168C6.25333 20.112 6.54133 20.752 7.032 21.2C7.52267 21.6267 8.16267 21.84 8.952 21.84C9.76267 21.84 10.4027 21.6587 10.872 21.296C11.3413 20.912 11.576 20.3893 11.576 19.728C11.576 19.1733 11.384 18.7147 11 18.352C10.6373 17.9893 10.1787 17.6907 9.624 17.456C9.09067 17.2213 8.32267 16.9547 7.32 16.656C5.86933 16.208 4.68533 15.76 3.768 15.312C2.85067 14.864 2.06133 14.2027 1.4 13.328C0.738667 12.4533 0.408 11.312 0.408 9.904C0.408 7.81333 1.16533 6.18133 2.68 5.008C4.19467 3.81333 6.168 3.216 8.6 3.216C11.0747 3.216 13.0693 3.81333 14.584 5.008C16.0987 6.18133 16.9093 7.824 17.016 9.936H11.096C11.0533 9.21067 10.7867 8.64533 10.296 8.24C9.80533 7.81333 9.176 7.6 8.408 7.6C7.74667 7.6 7.21333 7.78133 6.808 8.144C6.40267 8.48533 6.2 8.98667 6.2 9.648C6.2 10.3733 6.54133 10.9387 7.224 11.344C7.90667 11.7493 8.97333 12.1867 10.424 12.656C11.8747 13.1467 13.048 13.616 13.944 14.064C14.8613 14.512 15.6507 15.1627 16.312 16.016C16.9733 16.8693 17.304 17.968 17.304 19.312C17.304 20.592 16.9733 21.7547 16.312 22.8C15.672 23.8453 14.7333 24.6773 13.496 25.296C12.2587 25.9147 10.7973 26.224 9.112 26.224ZM31.5515 7.952C33.6422 7.952 35.3062 8.63467 36.5435 10C37.8022 11.344 38.4315 13.2 38.4315 15.568V26H32.9915V16.304C32.9915 15.1093 32.6822 14.1813 32.0635 13.52C31.4448 12.8587 30.6128 12.528 29.5675 12.528C28.5222 12.528 27.6902 12.8587 27.0715 13.52C26.4528 14.1813 26.1435 15.1093 26.1435 16.304V26H20.6715V8.144H26.1435V10.512C26.6982 9.72267 27.4448 9.104 28.3835 8.656C29.3222 8.18667 30.3782 7.952 31.5515 7.952ZM59.066 16.784C59.066 17.296 59.034 17.8293 58.97 18.384H46.586C46.6713 19.4933 47.0233 20.3467 47.642 20.944C48.282 21.52 49.0607 21.808 49.978 21.808C51.3433 21.808 52.2927 21.232 52.826 20.08H58.65C58.3513 21.2533 57.8073 22.3093 57.018 23.248C56.25 24.1867 55.2793 24.9227 54.106 25.456C52.9327 25.9893 51.6207 26.256 50.17 26.256C48.4207 26.256 46.8633 25.8827 45.498 25.136C44.1327 24.3893 43.066 23.3227 42.298 21.936C41.53 20.5493 41.146 18.928 41.146 17.072C41.146 15.216 41.5193 13.5947 42.266 12.208C43.034 10.8213 44.1007 9.75467 45.466 9.008C46.8313 8.26133 48.3993 7.888 50.17 7.888C51.898 7.888 53.434 8.25067 54.778 8.976C56.122 9.70133 57.1673 10.736 57.914 12.08C58.682 13.424 59.066 14.992 59.066 16.784ZM53.466 15.344C53.466 14.4053 53.146 13.6587 52.506 13.104C51.866 12.5493 51.066 12.272 50.106 12.272C49.1887 12.272 48.41 12.5387 47.77 13.072C47.1513 13.6053 46.7673 14.3627 46.618 15.344H53.466ZM60.8648 17.04C60.8648 15.2053 61.2061 13.5947 61.8888 12.208C62.5928 10.8213 63.5421 9.75467 64.7368 9.008C65.9314 8.26133 67.2648 7.888 68.7368 7.888C69.9954 7.888 71.0941 8.144 72.0328 8.656C72.9928 9.168 73.7288 9.84 74.2408 10.672V8.144H79.7128V26H74.2408V23.472C73.7074 24.304 72.9608 24.976 72.0008 25.488C71.0621 26 69.9634 26.256 68.7048 26.256C67.2541 26.256 65.9314 25.8827 64.7368 25.136C63.5421 24.368 62.5928 23.2907 61.8888 21.904C61.2061 20.496 60.8648 18.8747 60.8648 17.04ZM74.2408 17.072C74.2408 15.7067 73.8568 14.6293 73.0888 13.84C72.3421 13.0507 71.4248 12.656 70.3368 12.656C69.2488 12.656 68.3208 13.0507 67.5528 13.84C66.8061 14.608 66.4328 15.6747 66.4328 17.04C66.4328 18.4053 66.8061 19.4933 67.5528 20.304C68.3208 21.0933 69.2488 21.488 70.3368 21.488C71.4248 21.488 72.3421 21.0933 73.0888 20.304C73.8568 19.5147 74.2408 18.4373 74.2408 17.072ZM94.5835 26L89.1435 18.512V26H83.6715V2.32H89.1435V15.408L94.5515 8.144H101.304L93.8795 17.104L101.368 26H94.5835ZM119.613 3.536V7.92H113.661V26H108.189V7.92H102.237V3.536H119.613ZM125.111 6.288C124.151 6.288 123.362 6.01067 122.743 5.456C122.146 4.88 121.847 4.176 121.847 3.344C121.847 2.49067 122.146 1.78667 122.743 1.232C123.362 0.655998 124.151 0.367998 125.111 0.367998C126.05 0.367998 126.818 0.655998 127.415 1.232C128.034 1.78667 128.343 2.49067 128.343 3.344C128.343 4.176 128.034 4.88 127.415 5.456C126.818 6.01067 126.05 6.288 125.111 6.288ZM127.831 8.144V26H122.359V8.144H127.831ZM154.581 7.952C156.799 7.952 158.559 8.624 159.861 9.968C161.183 11.312 161.845 13.1787 161.845 15.568V26H156.405V16.304C156.405 15.152 156.095 14.2667 155.477 13.648C154.879 13.008 154.047 12.688 152.981 12.688C151.914 12.688 151.071 13.008 150.453 13.648C149.855 14.2667 149.557 15.152 149.557 16.304V26H144.117V16.304C144.117 15.152 143.807 14.2667 143.189 13.648C142.591 13.008 141.759 12.688 140.693 12.688C139.626 12.688 138.783 13.008 138.165 13.648C137.567 14.2667 137.269 15.152 137.269 16.304V26H131.797V8.144H137.269V10.384C137.823 9.63733 138.549 9.05067 139.445 8.624C140.341 8.176 141.354 7.952 142.485 7.952C143.829 7.952 145.023 8.24 146.069 8.816C147.135 9.392 147.967 10.2133 148.565 11.28C149.183 10.2987 150.026 9.49867 151.093 8.88C152.159 8.26133 153.322 7.952 154.581 7.952ZM182.503 16.784C182.503 17.296 182.472 17.8293 182.408 18.384H170.024C170.109 19.4933 170.461 20.3467 171.08 20.944C171.72 21.52 172.498 21.808 173.416 21.808C174.781 21.808 175.73 21.232 176.264 20.08H182.088C181.789 21.2533 181.245 22.3093 180.456 23.248C179.688 24.1867 178.717 24.9227 177.544 25.456C176.37 25.9893 175.058 26.256 173.608 26.256C171.858 26.256 170.301 25.8827 168.936 25.136C167.57 24.3893 166.504 23.3227 165.736 21.936C164.968 20.5493 164.584 18.928 164.584 17.072C164.584 15.216 164.957 13.5947 165.704 12.208C166.472 10.8213 167.538 9.75467 168.904 9.008C170.269 8.26133 171.837 7.888 173.608 7.888C175.336 7.888 176.872 8.25067 178.216 8.976C179.56 9.70133 180.605 10.736 181.352 12.08C182.12 13.424 182.503 14.992 182.503 16.784ZM176.904 15.344C176.904 14.4053 176.584 13.6587 175.944 13.104C175.304 12.5493 174.504 12.272 173.544 12.272C172.626 12.272 171.848 12.5387 171.208 13.072C170.589 13.6053 170.205 14.3627 170.056 15.344H176.904Z" fill="white"/>
</svg>
