<svg width="172" height="26" viewBox="0 0 172 26" fill="none" xmlns="http://www.w3.org/2000/svg">
<path d="M13.6477 8.42045C13.5568 7.50379 13.1667 6.79167 12.4773 6.28409C11.7879 5.77651 10.8523 5.52273 9.67045 5.52273C8.86742 5.52273 8.18939 5.63636 7.63636 5.86364C7.08333 6.08333 6.65909 6.39015 6.36364 6.78409C6.07576 7.17803 5.93182 7.625 5.93182 8.125C5.91667 8.54167 6.00379 8.9053 6.19318 9.21591C6.39015 9.52652 6.65909 9.79545 7 10.0227C7.34091 10.2424 7.73485 10.4356 8.18182 10.6023C8.62879 10.7614 9.10606 10.8977 9.61364 11.0114L11.7045 11.5114C12.7197 11.7386 13.6515 12.0417 14.5 12.4205C15.3485 12.7992 16.0833 13.2652 16.7045 13.8182C17.3258 14.3712 17.8068 15.0227 18.1477 15.7727C18.4962 16.5227 18.6742 17.3826 18.6818 18.3523C18.6742 19.7765 18.3106 21.0114 17.5909 22.0568C16.8788 23.0947 15.8485 23.9015 14.5 24.4773C13.1591 25.0455 11.5417 25.3295 9.64773 25.3295C7.76894 25.3295 6.13258 25.0417 4.73864 24.4659C3.35227 23.8902 2.26894 23.0379 1.48864 21.9091C0.715909 20.7727 0.310606 19.3674 0.272727 17.6932H5.03409C5.08712 18.4735 5.31061 19.125 5.70455 19.6477C6.10606 20.1629 6.64015 20.553 7.30682 20.8182C7.98106 21.0758 8.74242 21.2045 9.59091 21.2045C10.4242 21.2045 11.1477 21.0833 11.7614 20.8409C12.3826 20.5985 12.8636 20.2614 13.2045 19.8295C13.5455 19.3977 13.7159 18.9015 13.7159 18.3409C13.7159 17.8182 13.5606 17.3788 13.25 17.0227C12.947 16.6667 12.5 16.3636 11.9091 16.1136C11.3258 15.8636 10.6098 15.6364 9.76136 15.4318L7.22727 14.7955C5.26515 14.3182 3.71591 13.572 2.57955 12.5568C1.44318 11.5417 0.878788 10.1742 0.886364 8.45454C0.878788 7.04545 1.25379 5.81439 2.01136 4.76136C2.77652 3.70833 3.82576 2.88636 5.15909 2.29545C6.49242 1.70454 8.00758 1.40909 9.70455 1.40909C11.4318 1.40909 12.9394 1.70454 14.2273 2.29545C15.5227 2.88636 16.5303 3.70833 17.25 4.76136C17.9697 5.81439 18.3409 7.03409 18.3636 8.42045H13.6477ZM26.7415 14.9091V25H21.9006V7.54545H26.5142V10.625H26.7188C27.1051 9.60985 27.7528 8.80682 28.6619 8.21591C29.571 7.61742 30.6733 7.31818 31.9688 7.31818C33.1809 7.31818 34.2377 7.58333 35.1392 8.11364C36.0407 8.64394 36.7415 9.40151 37.2415 10.3864C37.7415 11.3636 37.9915 12.5303 37.9915 13.8864V25H33.1506V14.75C33.1581 13.6818 32.8854 12.8485 32.3324 12.25C31.7794 11.6439 31.018 11.3409 30.0483 11.3409C29.3968 11.3409 28.821 11.4811 28.321 11.7614C27.8286 12.0417 27.4422 12.4508 27.1619 12.9886C26.8892 13.5189 26.7491 14.1591 26.7415 14.9091ZM49.7614 25.3409C47.9659 25.3409 46.4205 24.9773 45.125 24.25C43.8371 23.5152 42.8447 22.4773 42.1477 21.1364C41.4508 19.7879 41.1023 18.1932 41.1023 16.3523C41.1023 14.5568 41.4508 12.9811 42.1477 11.625C42.8447 10.2689 43.8258 9.21212 45.0909 8.45454C46.3636 7.69697 47.8561 7.31818 49.5682 7.31818C50.7197 7.31818 51.7917 7.50379 52.7841 7.875C53.7841 8.23864 54.6553 8.78788 55.3977 9.52273C56.1477 10.2576 56.7311 11.1818 57.1477 12.2955C57.5644 13.4015 57.7727 14.697 57.7727 16.1818V17.5114H43.0341V14.5114H53.2159C53.2159 13.8144 53.0644 13.197 52.7614 12.6591C52.4583 12.1212 52.0379 11.7008 51.5 11.3977C50.9697 11.0871 50.3523 10.9318 49.6477 10.9318C48.9129 10.9318 48.2614 11.1023 47.6932 11.4432C47.1326 11.7765 46.6932 12.2273 46.375 12.7955C46.0568 13.3561 45.8939 13.9811 45.8864 14.6705V17.5227C45.8864 18.3864 46.0455 19.1326 46.3636 19.7614C46.6894 20.3902 47.1477 20.875 47.7386 21.2159C48.3295 21.5568 49.0303 21.7273 49.8409 21.7273C50.3788 21.7273 50.8712 21.6515 51.3182 21.5C51.7652 21.3485 52.1477 21.1212 52.4659 20.8182C52.7841 20.5152 53.0265 20.1439 53.1932 19.7045L57.6705 20C57.4432 21.0758 56.9773 22.0152 56.2727 22.8182C55.5758 23.6136 54.6742 24.2348 53.5682 24.6818C52.4697 25.1212 51.2008 25.3409 49.7614 25.3409ZM65.9091 25.3295C64.7955 25.3295 63.803 25.1364 62.9318 24.75C62.0606 24.3561 61.3712 23.7765 60.8636 23.0114C60.3636 22.2386 60.1136 21.2765 60.1136 20.125C60.1136 19.1553 60.2917 18.3409 60.6477 17.6818C61.0038 17.0227 61.4886 16.4924 62.1023 16.0909C62.7159 15.6894 63.4129 15.3864 64.1932 15.1818C64.9811 14.9773 65.8068 14.8333 66.6705 14.75C67.6856 14.6439 68.5038 14.5455 69.125 14.4545C69.7462 14.3561 70.197 14.2121 70.4773 14.0227C70.7576 13.8333 70.8977 13.553 70.8977 13.1818V13.1136C70.8977 12.3939 70.6705 11.8371 70.2159 11.4432C69.7689 11.0492 69.1326 10.8523 68.3068 10.8523C67.4356 10.8523 66.7424 11.0455 66.2273 11.4318C65.7121 11.8106 65.3712 12.2879 65.2045 12.8636L60.7273 12.5C60.9545 11.4394 61.4015 10.5227 62.0682 9.75C62.7348 8.9697 63.5947 8.37121 64.6477 7.95454C65.7083 7.5303 66.9356 7.31818 68.3295 7.31818C69.2992 7.31818 70.2273 7.43182 71.1136 7.65909C72.0076 7.88636 72.7992 8.23864 73.4886 8.71591C74.1856 9.19318 74.7348 9.80682 75.1364 10.5568C75.5379 11.2992 75.7386 12.1894 75.7386 13.2273V25H71.1477V22.5795H71.0114C70.7311 23.125 70.3561 23.6061 69.8864 24.0227C69.4167 24.4318 68.8523 24.7538 68.1932 24.9886C67.5341 25.2159 66.7727 25.3295 65.9091 25.3295ZM67.2955 21.9886C68.0076 21.9886 68.6364 21.8485 69.1818 21.5682C69.7273 21.2803 70.1553 20.8939 70.4659 20.4091C70.7765 19.9242 70.9318 19.375 70.9318 18.7614V16.9091C70.7803 17.0076 70.572 17.0985 70.3068 17.1818C70.0492 17.2576 69.7576 17.3295 69.4318 17.3977C69.1061 17.4583 68.7803 17.5152 68.4545 17.5682C68.1288 17.6136 67.8333 17.6553 67.5682 17.6932C67 17.7765 66.5038 17.9091 66.0795 18.0909C65.6553 18.2727 65.3258 18.5189 65.0909 18.8295C64.8561 19.1326 64.7386 19.5114 64.7386 19.9659C64.7386 20.625 64.9773 21.1288 65.4545 21.4773C65.9394 21.8182 66.553 21.9886 67.2955 21.9886ZM83.8807 19.9773L83.892 14.1705H84.5966L90.1875 7.54545H95.7443L88.233 16.3182H87.0852L83.8807 19.9773ZM79.4943 25V1.72727H84.3352V25H79.4943ZM90.4034 25L85.267 17.3977L88.4943 13.9773L96.0739 25H90.4034ZM95.5114 5.78409V1.72727H114.625V5.78409H107.5V25H102.636V5.78409H95.5114ZM117.682 25V7.54545H122.523V25H117.682ZM120.114 5.29545C119.394 5.29545 118.777 5.05682 118.261 4.57954C117.754 4.0947 117.5 3.51515 117.5 2.84091C117.5 2.17424 117.754 1.60227 118.261 1.125C118.777 0.640151 119.394 0.397726 120.114 0.397726C120.833 0.397726 121.447 0.640151 121.955 1.125C122.47 1.60227 122.727 2.17424 122.727 2.84091C122.727 3.51515 122.47 4.0947 121.955 4.57954C121.447 5.05682 120.833 5.29545 120.114 5.29545ZM126.401 25V7.54545H131.014V10.625H131.219C131.582 9.60227 132.188 8.79545 133.037 8.20454C133.885 7.61364 134.901 7.31818 136.082 7.31818C137.279 7.31818 138.298 7.61742 139.139 8.21591C139.98 8.80682 140.541 9.60985 140.821 10.625H141.003C141.359 9.625 142.003 8.82576 142.935 8.22727C143.874 7.62121 144.984 7.31818 146.264 7.31818C147.893 7.31818 149.215 7.83712 150.23 8.875C151.253 9.9053 151.764 11.3674 151.764 13.2614V25H146.935V14.2159C146.935 13.2462 146.677 12.5189 146.162 12.0341C145.647 11.5492 145.003 11.3068 144.23 11.3068C143.351 11.3068 142.666 11.5871 142.173 12.1477C141.681 12.7008 141.435 13.4318 141.435 14.3409V25H136.741V14.1136C136.741 13.2576 136.495 12.5758 136.003 12.0682C135.518 11.5606 134.878 11.3068 134.082 11.3068C133.545 11.3068 133.06 11.4432 132.628 11.7159C132.204 11.9811 131.866 12.3561 131.616 12.8409C131.366 13.3182 131.241 13.8788 131.241 14.5227V25H126.401ZM163.543 25.3409C161.747 25.3409 160.202 24.9773 158.906 24.25C157.618 23.5152 156.626 22.4773 155.929 21.1364C155.232 19.7879 154.884 18.1932 154.884 16.3523C154.884 14.5568 155.232 12.9811 155.929 11.625C156.626 10.2689 157.607 9.21212 158.872 8.45454C160.145 7.69697 161.637 7.31818 163.349 7.31818C164.501 7.31818 165.573 7.50379 166.565 7.875C167.565 8.23864 168.437 8.78788 169.179 9.52273C169.929 10.2576 170.512 11.1818 170.929 12.2955C171.346 13.4015 171.554 14.697 171.554 16.1818V17.5114H156.815V14.5114H166.997C166.997 13.8144 166.846 13.197 166.543 12.6591C166.24 12.1212 165.819 11.7008 165.281 11.3977C164.751 11.0871 164.134 10.9318 163.429 10.9318C162.694 10.9318 162.043 11.1023 161.474 11.4432C160.914 11.7765 160.474 12.2273 160.156 12.7955C159.838 13.3561 159.675 13.9811 159.668 14.6705V17.5227C159.668 18.3864 159.827 19.1326 160.145 19.7614C160.471 20.3902 160.929 20.875 161.52 21.2159C162.111 21.5568 162.812 21.7273 163.622 21.7273C164.16 21.7273 164.652 21.6515 165.099 21.5C165.546 21.3485 165.929 21.1212 166.247 20.8182C166.565 20.5152 166.808 20.1439 166.974 19.7045L171.452 20C171.224 21.0758 170.759 22.0152 170.054 22.8182C169.357 23.6136 168.455 24.2348 167.349 24.6818C166.251 25.1212 164.982 25.3409 163.543 25.3409Z" fill="white"/>
</svg>
