<svg width="24" height="24" viewBox="0 0 24 24" fill="none" xmlns="http://www.w3.org/2000/svg">
<path d="M23.9998 7.7998L6.44181 15.2758C4.98581 15.8918 3.76281 16.2008 2.77381 16.2008C1.65381 16.2008 0.840814 15.8088 0.336814 15.0238C0.0198138 14.5198 -0.0731862 13.8808 0.0568138 13.1058C0.186814 12.3308 0.532814 11.5058 1.09281 10.6278C1.55981 9.9178 2.32481 8.9848 3.38981 7.8278C3.02858 8.39647 2.76368 9.02086 2.60581 9.6758C2.32581 10.8708 2.57781 11.7478 3.36181 12.3078C3.73481 12.5688 4.24781 12.6998 4.90181 12.6998C5.42381 12.6998 6.01181 12.6158 6.66581 12.4478L23.9998 7.7998Z" fill="#F5AB09"/>
</svg>
