<svg width="24" height="24" viewBox="0 0 24 24" fill="none" xmlns="http://www.w3.org/2000/svg">
<g clip-path="url(#clip0_179_11)">
<path d="M12.1226 24C11.9216 24 11.7189 23.9942 11.5198 23.9825C11.4765 23.8935 11.4614 23.7933 11.4765 23.6955C11.486 23.6075 11.4788 23.5184 11.4552 23.4331H9.22501C9.02155 23.657 8.74133 23.7961 8.44001 23.8229C8.34437 23.8212 8.25007 23.8001 8.16283 23.7609C8.07559 23.7217 7.99723 23.6651 7.93251 23.5947C7.80397 23.4433 7.72814 23.2543 7.71646 23.056C7.70479 22.8578 7.75791 22.6611 7.86781 22.4957C7.93411 22.4115 8.01886 22.3436 8.11554 22.2973C8.21222 22.251 8.31823 22.2275 8.42541 22.2287C8.68202 22.2414 8.92807 22.3349 9.12841 22.4957H11.4555C11.4877 22.2923 11.4877 22.0851 11.4555 21.8817H10.2596C10.0685 21.8853 9.87957 21.8408 9.71011 21.7524C9.26811 21.487 8.79541 21.2304 8.22331 20.9444C8.00821 20.8166 7.76249 20.7496 7.51231 20.7504C7.35412 20.7604 7.19563 20.7652 7.03711 20.7646C6.88011 20.7646 6.72411 20.761 6.57271 20.7576C6.42275 20.7534 6.27274 20.751 6.12271 20.7504C5.90151 20.9627 5.61459 21.0934 5.30921 21.1208C5.21151 21.1201 5.11513 21.0981 5.02673 21.0565C4.93834 21.0149 4.86003 20.9545 4.79721 20.8797C4.65708 20.7376 4.57852 20.546 4.57852 20.3464C4.57852 20.1468 4.65708 19.9552 4.79721 19.8131C4.86168 19.7318 4.943 19.6654 5.03558 19.6184C5.12816 19.5715 5.2298 19.5452 5.33351 19.5413C5.61553 19.5684 5.8811 19.6864 6.09011 19.8777H7.77091C7.96202 19.8741 8.15098 19.9185 8.32041 20.007C8.46171 20.0894 8.61421 20.1686 8.76191 20.2459C9.02366 20.3742 9.27578 20.5212 9.51631 20.6858C9.84612 20.9066 10.2355 21.0215 10.6323 21.0151C10.6914 21.0152 10.7505 21.0132 10.8095 21.0091C10.8821 20.9991 10.9553 20.9943 11.0286 20.9948C11.0968 20.9948 11.1647 20.998 11.2366 21.0016C11.3163 21.0056 11.3981 21.0094 11.4882 21.0094V19.9751H10.3243C10.1242 20.1463 9.87566 20.251 9.61331 20.2744C9.49319 20.2663 9.3762 20.2326 9.27027 20.1753C9.16433 20.1181 9.07193 20.0388 8.99931 19.9428C8.62841 19.5385 8.86471 19.1396 9.12841 18.8762C9.22854 18.7956 9.35316 18.7515 9.48171 18.7512C9.80781 18.7927 10.1075 18.952 10.3243 19.1991H11.4233V18.2941C11.3682 18.2664 11.3072 18.2526 11.2455 18.2537C11.2185 18.2537 11.1915 18.2556 11.1631 18.2576C11.1346 18.2595 11.1007 18.2618 11.0677 18.2618H4.95891C4.81489 18.2714 4.67084 18.2437 4.54063 18.1814C4.41043 18.1191 4.29846 18.0243 4.21551 17.9062C4.04391 17.6777 3.84571 17.447 3.67051 17.2433L3.60151 17.1629C2.85801 17.0982 2.63171 16.8784 2.66401 16.2579C2.67274 16.1574 2.70165 16.0597 2.74904 15.9707C2.79642 15.8816 2.86129 15.803 2.93976 15.7397C3.01823 15.6763 3.10869 15.6294 3.20571 15.6018C3.30274 15.5742 3.40433 15.5665 3.50441 15.5791C3.99601 15.5791 4.21541 15.9081 4.21541 16.6457C4.27621 16.7165 4.33541 16.7886 4.39811 16.8652C4.53381 17.0303 4.67381 17.2013 4.82961 17.3572H11.4878C11.5203 17.0132 11.5203 16.6668 11.4878 16.3228H6.63961C6.42478 16.5335 6.1443 16.6643 5.84481 16.6935C5.74931 16.6916 5.65535 16.669 5.56939 16.6273C5.48343 16.5856 5.4075 16.5259 5.34681 16.4521C5.27067 16.3822 5.20987 16.2973 5.16828 16.2027C5.12669 16.1081 5.10521 16.0059 5.10521 15.9026C5.10521 15.7993 5.12669 15.6971 5.16828 15.6025C5.20987 15.5079 5.27067 15.423 5.34681 15.3531C5.40737 15.2746 5.48405 15.2101 5.57169 15.1637C5.65932 15.1174 5.75586 15.0904 5.85481 15.0846C6.13063 15.1168 6.38594 15.2463 6.57491 15.4498H11.4555V14.4478H3.21351C3.05751 14.6214 2.89031 14.7972 2.71191 14.9834C2.55351 15.1495 2.39061 15.3202 2.21121 15.5144C2.19079 15.7135 2.09979 15.8987 1.95467 16.0366C1.80955 16.1744 1.6199 16.2557 1.42001 16.2659C1.38194 16.2659 1.34391 16.2633 1.30621 16.2579C1.08799 16.2101 0.897544 16.0779 0.77644 15.8902C0.655336 15.7024 0.61341 15.4744 0.659812 15.2559C0.718612 14.8732 1.03181 14.6537 1.51951 14.6537C1.61038 14.6541 1.70111 14.6609 1.79101 14.6741C1.96751 14.4679 2.23451 14.1657 2.50211 13.8984C2.59837 13.7891 2.71825 13.7032 2.85265 13.6472C2.98705 13.5912 3.13245 13.5665 3.27781 13.5751H11.4552V12.4762H1.62941C1.42832 12.6726 1.16587 12.7939 0.886012 12.8198C0.77612 12.8161 0.668761 12.7858 0.573094 12.7316C0.477428 12.6774 0.396293 12.6009 0.336612 12.5085C0.210244 12.3412 0.150235 12.1332 0.168144 11.9243C0.186054 11.7154 0.280615 11.5206 0.433612 11.3773C0.565266 11.2578 0.735175 11.189 0.912912 11.1833C1.07515 11.2019 1.23158 11.2548 1.37187 11.3384C1.51215 11.422 1.6331 11.5344 1.72671 11.6682H4.92651L4.82511 11.5712C4.26561 11.0428 3.68731 10.4965 2.98691 9.8582C2.88143 9.8613 2.77647 9.84226 2.6788 9.80231C2.58113 9.76236 2.49291 9.70239 2.41983 9.62627C2.34675 9.55015 2.29042 9.45955 2.25449 9.36033C2.21856 9.26111 2.20382 9.15547 2.21121 9.0502C2.21121 8.5362 2.43071 8.3067 2.92221 8.3067C3.58391 8.3067 3.76261 8.5194 3.79501 9.341C4.04321 9.579 4.28721 9.81 4.54581 10.0544C5.08751 10.567 5.64681 11.0958 6.21911 11.6682H11.4551V10.9248H9.16041C8.95712 11.0811 8.71152 11.1727 8.45551 11.1876C8.34146 11.1867 8.22915 11.1596 8.12721 11.1084C8.02527 11.0572 7.93643 10.9834 7.86751 10.8925C7.74521 10.7272 7.69051 10.5216 7.71455 10.3174C7.73859 10.1132 7.83957 9.92584 7.99691 9.7935C8.1161 9.68419 8.2725 9.62446 8.43421 9.6265C8.74777 9.65176 9.04099 9.7918 9.25771 10.0198H11.4557V9.1794C11.2293 9.1794 11.0031 9.1758 10.7847 9.1724H10.7781C10.5595 9.16818 10.3408 9.16578 10.1221 9.1652C9.87371 9.1652 9.65461 9.17 9.45161 9.1794C9.41356 9.18256 9.3754 9.18416 9.33721 9.1842C9.01606 9.18025 8.70917 9.05096 8.48201 8.8239L7.88141 8.3171L7.86981 8.3071L7.86201 8.3005C7.4556 7.95642 7.04813 7.61358 6.63961 7.272H3.05191C2.84965 7.4437 2.59747 7.5457 2.33271 7.5629C2.22122 7.56146 2.11153 7.53449 2.01208 7.48407C1.91263 7.43364 1.82606 7.36109 1.75901 7.272C1.69266 7.19372 1.64251 7.10306 1.61144 7.00526C1.58038 6.90746 1.56903 6.80446 1.57806 6.70225C1.58708 6.60003 1.61629 6.50062 1.664 6.40977C1.71172 6.31893 1.77698 6.23845 1.85601 6.173C1.97926 6.04005 2.14922 5.96002 2.33021 5.9497C2.64781 5.99796 2.93795 6.15743 3.14891 6.3997H6.28411C6.49848 6.39324 6.71196 6.42997 6.91185 6.50771C7.11173 6.58545 7.29393 6.7026 7.44761 6.8522C7.82091 7.2035 8.24271 7.5429 8.65061 7.8709H8.65221C8.84221 8.0241 9.04021 8.1822 9.22521 8.3373H11.4232V7.2707C11.2852 7.2707 11.141 7.2672 11.003 7.2637H10.9999C10.8535 7.25951 10.7071 7.2571 10.5607 7.2565C10.3991 7.2565 10.2575 7.2613 10.1321 7.2707C10.0936 7.27391 10.055 7.27555 10.0164 7.2756C9.70159 7.27097 9.39851 7.15534 9.16061 6.9491C9.06039 6.8672 8.95877 6.78703 8.85581 6.7086C8.75331 6.6298 8.64381 6.547 8.54651 6.4643C7.74651 6.3997 7.44751 6.1734 7.47981 5.6563C7.48815 5.4562 7.57356 5.26709 7.71816 5.12853C7.86276 4.98997 8.05534 4.9127 8.25561 4.9129C8.75261 4.9129 9.03131 5.2147 9.06361 5.7855C9.19291 5.8825 9.32221 5.9888 9.45161 6.0916L9.45311 6.0936C9.57981 6.1966 9.71161 6.3033 9.84091 6.4H11.4247V5.1394H10.8752C10.6653 5.3384 10.397 5.46473 10.1098 5.4998C10.0051 5.49397 9.90317 5.46426 9.81174 5.41296C9.72031 5.36165 9.64183 5.29011 9.58231 5.2038C9.44585 5.05136 9.37313 4.85234 9.37916 4.64783C9.38519 4.44333 9.46951 4.24894 9.61471 4.1048C9.67947 4.03733 9.75713 3.98357 9.84307 3.9467C9.92902 3.90983 10.0215 3.89062 10.115 3.8902C10.4077 3.91039 10.6804 4.04565 10.8736 4.2664H11.3907C11.4449 4.15957 11.4601 4.03715 11.4337 3.9203C11.4275 3.8743 11.424 3.828 11.423 3.7816V3.2645C11.3263 3.27324 11.2293 3.27744 11.1322 3.2771C11.0132 3.2771 10.8923 3.2722 10.7766 3.2674H10.7696C10.6484 3.26131 10.527 3.25784 10.4056 3.257C10.0516 3.24173 9.70005 3.32274 9.38841 3.4914C9.02847 3.70698 8.65616 3.90122 8.27341 4.0731H8.27041C8.11661 4.1459 7.95761 4.2211 7.80441 4.2975C7.67167 4.35284 7.52745 4.37502 7.38421 4.3621H5.21871C5.03405 4.552 4.78689 4.66865 4.52291 4.6905C4.40496 4.68468 4.28986 4.65223 4.18624 4.59558C4.08262 4.53893 3.99318 4.45955 3.92461 4.3634C3.85881 4.28968 3.80881 4.20326 3.77768 4.10948C3.74655 4.0157 3.73496 3.91653 3.74361 3.8181C3.75322 3.70456 3.78565 3.59414 3.83897 3.49344C3.89229 3.39274 3.9654 3.30385 4.05391 3.2321C4.18284 3.11163 4.3508 3.04157 4.52711 3.0347C4.67813 3.05271 4.82357 3.1027 4.95376 3.18133C5.08394 3.25996 5.19588 3.36542 5.28211 3.4907H7.38311C7.46017 3.48715 7.53588 3.46917 7.60631 3.4377C7.64948 3.42047 7.69363 3.40578 7.73851 3.3937C7.87011 3.3291 8.00131 3.2645 8.12831 3.2044C8.44845 3.05772 8.76068 2.89436 9.06371 2.715C9.47222 2.47077 9.94083 2.34549 10.4167 2.3533C10.4813 2.3533 10.5479 2.3553 10.6148 2.3591C10.7006 2.36927 10.787 2.37405 10.8734 2.3734C10.9587 2.3734 11.0434 2.3701 11.132 2.3666H11.1343C11.2263 2.363 11.3217 2.3591 11.4203 2.3591C11.4597 2.1648 11.472 1.96597 11.4568 1.7683C11.4549 1.6982 11.4526 1.6258 11.4526 1.5511H9.41631C9.19878 1.73415 8.93236 1.84943 8.65001 1.8827C8.54519 1.87666 8.44317 1.84652 8.3519 1.7946C8.26063 1.74269 8.18258 1.67041 8.12381 1.5834C7.99861 1.42391 7.93606 1.22413 7.94796 1.02171C7.95986 0.819299 8.04539 0.628225 8.18841 0.4845C8.31883 0.356653 8.49322 0.283555 8.67581 0.2802C8.96968 0.306331 9.24467 0.436134 9.45161 0.6464H11.4556C11.4556 0.5566 11.4626 0.4661 11.47 0.3701C11.4787 0.2563 11.4878 0.1387 11.4878 0H11.6138C15.8098 0 19.106 1.6423 21.4105 4.8805C22.8156 6.75722 23.6515 8.99834 23.8185 11.3368C23.9397 13.5401 23.3795 15.7939 22.1539 18.0354C21.1262 19.9147 19.5896 21.4663 17.7204 22.5122C16.0123 23.4784 14.085 23.9907 12.1226 24ZM12.4898 18.4232V22.8836C12.5792 22.8984 12.6697 22.9057 12.7603 22.9053C12.9249 22.9018 13.0889 22.8865 13.2513 22.8597C13.3603 22.8445 13.4717 22.8274 13.5883 22.819C14.6265 21.4983 15.4351 20.0123 15.9803 18.4233L12.4898 18.4232ZM17.1441 18.4232C16.6823 19.8036 16.0642 21.1266 15.3017 22.3665C17.451 21.6645 19.3122 20.2799 20.6025 18.4232H17.1441ZM18.1784 12.6377C18.1318 14.2101 17.9041 15.7718 17.4996 17.292H21.3136C22.0776 15.8529 22.5188 14.2646 22.6064 12.6377H18.1784ZM12.4898 12.6377V17.2597H16.3684C16.7928 15.7547 17.0209 14.2012 17.0471 12.6377H12.4898ZM12.5221 6.8522V11.5064H17.0794C17.0392 9.93126 16.8003 8.36749 16.3684 6.8522H12.5221ZM17.4673 6.8198C17.8751 8.34029 18.1136 9.90121 18.1783 11.4741H22.6064C22.5184 9.84307 22.0655 8.25257 21.2812 6.8198H17.4673ZM15.2694 1.7777C16.0363 3.01977 16.6649 4.34205 17.1441 5.7209H20.6025C19.2917 3.87056 17.4227 2.48866 15.2694 1.7777ZM12.5221 1.1959C12.5221 2.7583 12.5221 4.2341 12.5544 5.6886H16.0128C16.0005 5.67588 15.9912 5.66056 15.9856 5.64377C15.9801 5.62698 15.9783 5.60915 15.9805 5.5916C15.4393 4.12278 14.6881 2.74014 13.7503 1.4868C13.7377 1.4742 13.7254 1.4606 13.7125 1.4464C13.6913 1.41421 13.6635 1.3868 13.6311 1.36593C13.5987 1.34506 13.5622 1.33119 13.5241 1.3252C13.1926 1.26433 12.8582 1.22117 12.5221 1.1959Z" fill="#F5AB09"/>
</g>
<defs>
<clipPath id="clip0_179_11">
<rect width="24" height="24" fill="white"/>
</clipPath>
</defs>
</svg>
