<svg width="16" height="16" viewBox="0 0 16 16" fill="none" xmlns="http://www.w3.org/2000/svg">
<g clip-path="url(#clip0_176_5)">
<path d="M3.55738 12.9361H0.740784C0.293734 12.9361 0.0143212 12.4522 0.237852 12.065C0.341584 11.8853 0.533315 11.7747 0.740784 11.7747H3.55738C4.00443 11.7746 4.28383 12.2586 4.06033 12.6457C3.95659 12.8254 3.76487 12.9361 3.55738 12.9361ZM5.88034 14.0976H1.90226C1.45521 14.0976 1.1758 14.5816 1.39935 14.9687C1.50309 15.1484 1.6948 15.2591 1.90226 15.2591H5.88034C6.3274 15.2591 6.6068 14.7751 6.38328 14.388C6.27953 14.2083 6.08783 14.0976 5.88034 14.0976ZM15.1983 11.6752L13.12 10.6364C11.9366 10.0495 11.1897 8.84095 11.1941 7.52V5.38651C11.1941 5.06775 10.9372 4.80856 10.6185 4.80577C8.69488 4.80658 7.13373 3.24998 7.12893 1.3264C7.13244 0.879361 6.6507 0.596168 6.2618 0.816649C6.23948 0.829299 6.21802 0.843418 6.19757 0.858911L1.69248 4.27439C1.55305 4.38079 1.53906 4.58557 1.66271 4.70994L5.39687 8.4441C5.61891 8.66012 5.63786 9.01044 5.44043 9.24916C5.21993 9.5045 4.829 9.51886 4.59037 9.28037L0.742965 5.43297C0.601577 5.29096 0.362252 5.33147 0.275465 5.51209C0.0628837 5.95639 0.153659 6.48647 0.501959 6.83473L8.75501 15.0892C8.86401 15.1981 9.01181 15.2592 9.16588 15.2591H14.6786C15.32 15.2591 15.84 14.7391 15.84 14.0976V12.714C15.8414 12.2738 15.5926 11.871 15.1983 11.6752Z" fill="#F8B206"/>
</g>
<defs>
<clipPath id="clip0_176_5">
<rect width="16" height="16" fill="white"/>
</clipPath>
</defs>
</svg>
