<svg width="16" height="16" viewBox="0 0 16 16" fill="none" xmlns="http://www.w3.org/2000/svg">
<path d="M14.1618 12.4783V13.3181C14.1618 15.2594 12.0604 16.4727 10.3792 15.5021C9.59895 15.0516 9.11831 14.2191 9.11831 13.3181V12.4783C9.11831 12.169 9.36898 11.9183 9.67823 11.9183H13.5977C13.9086 11.916 14.1618 12.1674 14.1618 12.4783ZM6.31868 10.2386H2.39921C2.08996 10.2386 1.83928 10.4892 1.83928 10.7985V11.6384C1.83928 13.578 3.939 14.7903 5.61877 13.8205C6.39836 13.3704 6.87861 12.5386 6.87861 11.6384V10.7985C6.87861 10.4893 6.62791 10.2386 6.31868 10.2386ZM4.35894 0.159912C3.54426 0.159912 2.75406 0.881512 2.13324 2.18964C1.15827 4.24596 0.834218 7.29896 2.15354 8.90874C2.26007 9.03877 2.41938 9.11406 2.58748 9.11381H6.12551C6.29361 9.11406 6.45292 9.03877 6.55945 8.90874C7.87877 7.29896 7.55472 4.24386 6.57975 2.18964C5.95823 0.881512 5.16874 0.159912 4.35894 0.159912ZM9.8742 10.7985H13.4122C13.5803 10.7987 13.7396 10.7234 13.8462 10.5934C15.1655 8.98363 14.8414 5.92854 13.8665 3.87431C13.2429 2.56129 12.4527 1.83969 11.638 1.83969C10.8233 1.83969 10.0359 2.56129 9.41437 3.86941C8.4394 5.92574 8.11534 8.97873 9.43466 10.5885C9.54085 10.7211 9.7015 10.7984 9.8714 10.7985H9.8742Z" fill="#F8B206"/>
</svg>
